<svg width="16" height="16" viewBox="0 0 16 16" fill="none" xmlns="http://www.w3.org/2000/svg"><path d="M9.6 1.19H6.19c-.3 0-.5-.3-.5-.59 0-.3.2-.6.5-.6h3.5c.31 0 .51.3.51.6 0 .29-.31.59-.6.59ZM.6 2.3h14.7c.3 0 .7.2.7.5s-.3.59-.61.59H13.7v12c0 .31-.31.61-.6.61H2.89c-.29 0-.59-.3-.59-.61v-12H.6c-.3 0-.6-.29-.6-.59s.3-.5.6-.5Zm2.79 12.5h9.11V3.39H3.39V14.8Zm2.8-2.8c.31 0 .61-.3.61-.61v-5.7c0-.3-.3-.59-.61-.59-.3 0-.59.29-.59.59v5.7c.09.31.29.61.59.61Zm4.11-.61c0 .31-.3.61-.61.61-.39 0-.59-.3-.59-.61v-5.7c0-.19.29-.59.59-.59.31 0 .61.29.61.59v5.7Z" fill="#000" fill-rule="evenodd"/></svg>