<svg width="140" height="37" viewBox="0 0 140 37" fill="none" xmlns="http://www.w3.org/2000/svg"><defs><clipPath id="a"><rect rx="-.5" width="17" height="16" transform="translate(.5 10.5)" fill="#fff" fill-opacity="0"/></clipPath><clipPath id="b"><rect rx="-.5" width="17" height="16" transform="translate(24.5 10.5)" fill="#fff" fill-opacity="0"/></clipPath></defs><rect rx="-.5" width="17" height="16" transform="translate(.5 10.5)" fill="none"/><g clip-path="url(#a)"><path d="m9 10 2.1 6.5H18l-5.6 4 2.2 6.5L9 23l-5.6 4 2.19-6.5-5.59-4h6.9L9 10Z" fill="#83B3D3"/></g><rect rx="-.5" width="17" height="16" transform="translate(24.5 10.5)" fill="none"/><g clip-path="url(#b)"><path d="m33 10 2.09 6.5H42l-5.6 4 2.19 6.5L33 23l-5.6 4 2.2-6.5-5.6-4h6.9L33 10Z" fill="#83B3D3"/></g></svg>